<?xml version="1.0" standalone="no"?>
<!DOCTYPE svg PUBLIC "-//W3C//DTD SVG 20010904//EN"
 "http://www.w3.org/TR/2001/REC-SVG-20010904/DTD/svg10.dtd">
<svg version="1.0" xmlns="http://www.w3.org/2000/svg"
 width="700.000000pt" height="700.000000pt" viewBox="0 0 700.000000 700.000000"
 preserveAspectRatio="xMidYMid meet">
<metadata>
Created by potrace 1.11, written by Peter Selinger 2001-2013
</metadata>
<g transform="translate(0.000000,700.000000) scale(0.100000,-0.100000)"
fill="#000000" stroke="none">
<path d="M1409 6443 c-5 -14 -19 -63 -30 -109 -12 -46 -24 -84 -28 -85 -16 -2
-40 -7 -61 -14 -19 -6 -35 6 -102 71 l-79 79 -65 -35 c-36 -19 -68 -38 -70
-41 -2 -3 1 -21 6 -40 6 -19 13 -45 15 -59 3 -14 11 -47 18 -75 13 -49 13 -49
-18 -76 l-31 -28 -69 20 c-39 10 -86 23 -106 28 l-36 8 -42 -70 -43 -71 82
-79 c56 -54 79 -83 76 -95 -3 -9 -8 -29 -11 -43 -6 -23 -16 -28 -101 -50 -53
-13 -100 -27 -106 -30 -6 -4 -12 -41 -13 -84 -3 -88 -13 -80 128 -117 l87 -23
13 -45 13 -45 -41 -35 c-22 -19 -53 -46 -69 -60 -59 -52 -58 -45 -19 -121 21
-38 42 -68 47 -66 6 2 57 16 113 32 l101 28 27 -27 c24 -24 26 -32 19 -64 -10
-52 -10 -52 -24 -102 -24 -90 -26 -85 49 -124 l68 -35 81 80 c81 81 82 81 119
72 37 -8 38 -11 56 -78 9 -39 19 -80 21 -93 12 -62 12 -62 96 -62 73 0 79 2
86 23 5 12 8 24 9 27 0 3 9 42 20 87 l19 82 44 14 43 15 78 -81 78 -80 66 37
c37 21 67 43 67 49 -1 13 -25 113 -33 137 -19 53 -17 68 13 100 34 36 21 37
174 -9 38 -11 70 -20 71 -18 29 44 75 127 75 133 0 5 -34 42 -75 84 l-75 75
12 36 c9 32 16 38 47 42 20 3 47 8 61 11 119 26 130 30 131 45 5 65 0 145 -10
150 -6 4 -56 18 -111 31 l-100 24 -14 45 -14 46 83 80 83 80 -24 40 c-14 22
-29 50 -34 63 -6 12 -16 25 -23 28 -7 2 -58 -8 -113 -24 l-99 -29 -31 33 -32
33 33 98 33 98 -27 22 c-14 13 -30 23 -36 23 -5 0 -21 9 -35 20 -14 11 -30 20
-36 20 -9 0 -116 -92 -158 -136 -14 -15 -84 4 -96 26 -5 9 -19 58 -31 108
l-21 92 -62 1 c-33 0 -69 2 -79 4 -12 2 -21 -5 -28 -22z m162 -453 c205 -39
357 -244 335 -452 -29 -268 -284 -438 -543 -363 -302 88 -399 476 -176 702
100 101 236 141 384 113z"/>
<path d="M4405 5949 c-116 -16 -205 -69 -348 -207 -796 -772 -2841 -2826
-2913 -2927 -44 -62 -60 -95 -78 -165 -32 -125 0 -261 84 -353 78 -85 111 -99
570 -242 116 -36 476 -136 790 -220 157 -42 308 -82 335 -90 156 -46 269 -74
277 -69 4 3 8 11 8 18 0 11 39 160 134 511 73 269 98 362 101 380 4 18 -16 27
-183 81 -103 34 -274 90 -380 125 l-193 63 773 773 c425 425 775 773 779 773
3 0 13 -30 22 -67 20 -80 63 -243 147 -557 34 -127 64 -237 66 -245 2 -9 11
-43 20 -76 9 -33 18 -67 20 -75 3 -13 22 -86 78 -292 8 -31 18 -67 20 -80 3
-12 14 -54 25 -93 18 -67 101 -376 143 -535 10 -41 22 -78 24 -82 9 -13 -21
-9 -204 28 -98 20 -186 37 -198 40 -25 5 -302 64 -329 70 -11 2 -36 7 -55 10
l-36 5 -21 -83 c-11 -46 -48 -189 -82 -318 -149 -564 -141 -530 -116 -530 8 0
146 -36 307 -81 161 -44 433 -119 603 -165 171 -46 324 -88 340 -93 70 -22
495 -123 545 -129 276 -36 479 158 464 443 -4 69 -12 108 -94 415 -22 85 -56
214 -75 285 -106 407 -433 1631 -446 1671 -5 17 -11 40 -13 51 -3 11 -13 51
-24 89 -11 38 -48 173 -82 299 -34 127 -93 345 -132 485 -39 140 -83 302 -99
360 -15 58 -44 164 -64 235 -20 72 -40 144 -45 160 -58 222 -200 378 -367 403
-26 4 -70 5 -98 1z"/>
</g>
</svg>
