<?xml version="1.0" encoding="utf-8"?>
<!-- Generator: Adobe Illustrator 23.0.6, SVG Export Plug-In . SVG Version: 6.00 Build 0)  -->
<svg version="1.1" id="Layer_1" xmlns="http://www.w3.org/2000/svg" xmlns:xlink="http://www.w3.org/1999/xlink" x="0px" y="0px"
	 viewBox="0 0 260 260" style="enable-background:new 0 0 260 260;" xml:space="preserve">
<style type="text/css">
	.st0{fill:#888889;}
	.st1{fill:#8DC63F;}
</style>
<path class="st0" d="M84.1,51.2C64.6,51.2,48.8,67,49,86.7c0,19.5,15.8,35.4,35.5,35.2c19.5,0,35.2-15.8,35.2-35.4
	C119.7,67,103.7,51.2,84.1,51.2L84.1,51.2z M141.1,98.3c-0.6,2.4-1.1,5-2,7.2l13.1,12.9l-7,11.8l-17.5-5.3c-1.7,1.8-3.5,3.7-5.3,5.3
	l4.8,17.9l-11.8,6.8l-12.5-13.4c-2.4,0.7-4.8,1.5-7.4,2l-4.6,18.6H77.1l-4.2-18.6c-2.2-0.4-4.2-0.9-6.4-1.7l-13.6,13.4l-11.6-6.4
	l4.4-18.8c-1.7-1.5-3.3-3.1-4.8-4.8l-18.8,5.2L16,118.8l14-12.2c-0.9-2.4-1.5-4.8-2-7.4L9.7,94.5l0.4-13.6L27.8,76
	c0.4-2.4,1.1-4.6,1.8-7L15.8,55.8L23,44.2L41,49c1.5-1.7,3.1-3.3,4.8-4.8L41,25.8l12-6.4l12.9,13.3c2.4-0.9,5-1.5,7.6-2l4.8-17.9
	l13.6,0.4l4.2,17.7c2.4,0.6,4.8,1.1,7.2,1.8l13.8-12.7l11.8,7l-5.5,17.3c1.8,1.7,3.5,3.3,5.2,5.2l18-5.2l6.6,12l-13.6,12.3
	c0.9,2.8,1.7,5.5,2.2,8.3l18.6,4.8v13.6l-18.6,4.1L141.1,98.3z"/>
<path id="XMLID_64_" class="st1" d="M150.3,217.3c3.2-12.3,5.9-22.6,9-34.3c9.7,2,18.6,3.9,30.5,6.3c-7.1-26.8-13.8-51.7-21-78.9
	c-19.7,19.7-38.1,38.1-57.7,57.7c9.7,3.2,18.3,6,28.3,9.3c-3,11.1-5.8,21.9-9.3,34.7c-23-6.4-44.9-11.6-66.2-18.8
	c-11.9-4-14.2-17.1-4.9-26.6C94.6,130.4,130.5,94.4,167,58.9c11-10.7,23.8-6.4,28.1,8.8c13.4,48.5,26.5,97.1,39.2,145.7
	c3.8,14.4-5.4,24.5-19.1,21.2C194.1,229.7,173.3,223.6,150.3,217.3"/>
</svg>
