<svg xmlns="http://www.w3.org/2000/svg" viewBox="0 0 260 260"><path d="M136.1 203.2c3.2-12.3 5.9-22.6 9-34.3 9.7 2 18.6 3.9 30.5 6.3-7.1-26.8-13.8-51.7-21-78.9L96.9 154c9.7 3.2 18.3 6 28.3 9.3-3 11.1-5.8 21.9-9.3 34.7-23-6.4-44.9-11.6-66.2-18.8-11.9-4-14.2-17.1-4.9-26.6 35.6-36.3 71.5-72.3 107.9-107.8 11-10.7 23.8-6.4 28.1 8.8 13.4 48.5 26.5 97.1 39.2 145.7 3.8 14.4-5.4 24.5-19.1 21.2-21-4.9-41.8-11.1-64.8-17.3" fill="#8dc63f"/><path d="M55.1 37.1c-8.7 0-15.7 7-15.6 15.8 0 8.7 7 15.7 15.8 15.6 8.7 0 15.6-7 15.6-15.7s-7.1-15.7-15.8-15.7zM80.4 58c-.2 1.1-.5 2.2-.9 3.2l5.8 5.7-3.1 5.2-7.8-2.4c-.7.8-1.6 1.6-2.4 2.4l2.1 7.9-5.2 3-5.6-6c-1.1.3-2.1.7-3.3.9l-2 8.3h-6l-1.9-8.3c-1-.2-1.9-.4-2.9-.7l-6.1 6-5.1-2.7 2-8.3c-.7-.7-1.5-1.4-2.1-2.1l-8.3 2.3-2.7-5.2 6.2-5.4c-.4-1.1-.7-2.1-.9-3.3L22 56.3l.2-6.1 7.9-2.1c.2-1.1.5-2 .8-3.1l-6.1-5.9 3.2-5.2 8 2.1c.7-.7 1.4-1.5 2.1-2.1L36 25.7l5.3-2.9 5.7 5.9c1.1-.4 2.2-.7 3.4-.9l2.1-7.9 6.1.2 1.9 7.9c1.1.2 2.1.5 3.2.8l6.1-5.6 5.2 3.1-2.5 7.7c.8.7 1.6 1.5 2.3 2.3l8-2.3 2.9 5.3-6.1 5.5c.4 1.2.7 2.5 1 3.7l8.3 2.1v6.1l-8.3 1.8-.2-.5z" fill="#d8dadb"/></svg>