<svg version="1.1" id="Layer_1" xmlns="http://www.w3.org/2000/svg" x="0" y="0" viewBox="0 0 302.7 124.6" xml:space="preserve"><style>.st0{fill:#1c2d5a}</style><g id="XMLID_63_"><g id="XMLID_50_"><path id="XMLID_51_" class="st0" d="M17.8 47.2c2.5-.4 5.7-.8 9.9-.8 5.1 0 8.8 1.2 11.1 3.3 2.1 1.9 3.5 4.8 3.5 8.3 0 3.6-1.1 6.4-3.1 8.5-2.8 2.9-7.1 4.4-12.2 4.4-1.5 0-2.9-.1-4.1-.4v15.9h-5.1V47.2zm5.1 19.1c1.1.3 2.5.4 4.2.4 6.2 0 10-3.1 10-8.4 0-5.3-3.8-7.8-9.4-7.8-2.2 0-4 .2-4.8.4v15.4z"/><path id="XMLID_54_" class="st0" d="M67.5 79.6c0 2.5.1 4.9.4 6.8h-4.7l-.4-3.6h-.2C61 85 57.9 87 53.9 87c-5.8 0-8.7-4.1-8.7-8.2 0-6.9 6.1-10.7 17.2-10.6v-.6c0-2.3-.6-6.6-6.5-6.5-2.7 0-5.5.8-7.5 2.1l-1.2-3.5c2.4-1.5 5.8-2.5 9.4-2.5 8.7 0 10.9 6 10.9 11.6v10.8zm-5-7.7c-5.7-.1-12.1.9-12.1 6.4 0 3.4 2.2 5 4.8 5 3.8 0 6.2-2.4 7-4.8.2-.6.2-1.2.2-1.7v-4.9z"/><path id="XMLID_57_" class="st0" d="M100.3 82.3c0 6.6-1.4 10.6-4.1 13.1-2.8 2.5-6.8 3.4-10.4 3.4-3.4 0-7.2-.8-9.5-2.4l1.3-4c1.9 1.2 4.8 2.3 8.4 2.3 5.3 0 9.2-2.8 9.2-10v-3.1H95c-1.5 2.7-4.7 4.8-9.1 4.8-7.1 0-12.2-6-12.2-13.9 0-9.7 6.3-15.1 12.9-15.1 5 0 7.6 2.5 8.9 4.9h.1l.2-4.3h4.6c-.2 2-.2 4.4-.2 7.8v16.5zm-5.2-13.1c0-.9-.1-1.7-.3-2.3-.9-3.1-3.4-5.5-7.3-5.5-5 0-8.5 4.2-8.5 10.8 0 5.6 2.9 10.3 8.4 10.3 3.2 0 6.1-2 7.2-5.3.3-.9.4-1.9.4-2.8v-5.2z"/><path id="XMLID_60_" class="st0" d="M111.7 73.1c.1 7 4.5 9.9 9.8 9.9 3.7 0 6-.6 7.9-1.5l.9 3.7c-1.8.8-5 1.8-9.6 1.8-8.8 0-14-5.8-14-14.5 0-8.6 5.1-15.3 13.4-15.3 9.4 0 11.8 8.1 11.8 13.4 0 1.1-.1 1.8-.2 2.4h-20zm15.2-3.7c.1-3.2-1.4-8.4-7.2-8.4-5.3 0-7.5 4.8-8 8.4h15.2z"/></g><g id="XMLID_38_"><path id="XMLID_39_" class="st0" d="M138 86.5V46.7h10.5l8.3 14.6c2.4 4.2 4.7 9.1 6.5 13.6h.1c-.5-5.2-.7-10.6-.7-16.6V46.7h8.3v39.8h-9.4l-8.5-15.3c-2.4-4.2-5-9.4-6.9-14h-.2c.3 5.3.4 10.9.4 17.4v12H138z"/><path id="XMLID_41_" class="st0" d="M206.7 71.7c0 10.6-7.5 15.4-15.2 15.4-8.4 0-14.9-5.5-14.9-14.9s6.1-15.3 15.5-15.3c8.7 0 14.6 6.1 14.6 14.8zm-20.8.3c0 5 2.1 8.7 5.9 8.7 3.5 0 5.7-3.5 5.7-8.7 0-4.2-1.7-8.6-5.7-8.6-4.3-.1-5.9 4.4-5.9 8.6z"/><path id="XMLID_44_" class="st0" d="M212.3 67.1c0-4.2-.1-7-.2-9.5h7.7l.4 5.3h.2c1.5-4.2 5-6 7.8-6 .8 0 1.2.1 1.9.2v8.4c-.7-.1-1.4-.2-2.4-.2-3.3 0-5.5 1.8-6.1 4.5-.1.6-.2 1.3-.2 2v14.6h-9V67.1z"/><path id="XMLID_46_" class="st0" d="M246 49.8v7.8h6.4v6.6H246v10.4c0 3.5.9 5.1 3.5 5.1 1.2 0 1.8-.1 2.7-.2l.1 6.8c-1.1.4-3.3.8-5.8.8-2.9 0-5.3-1-6.8-2.5-1.7-1.7-2.5-4.5-2.5-8.6V64.2h-3.8v-6.6h3.8v-5.4l8.8-2.4z"/><path id="XMLID_48_" class="st0" d="M257.6 44.6h9v16.5h.1c.9-1.3 2.1-2.3 3.5-3 1.4-.7 3-1.1 4.7-1.1 5.7 0 10.1 4 10.1 12.7v16.8h-9V70.6c0-3.8-1.3-6.4-4.7-6.4-2.4 0-3.8 1.5-4.5 3.2-.2.5-.3 1.3-.3 1.9v17.1h-9V44.6z"/></g><path id="XMLID_64_" d="M71.5 48.1c.6-2.5 1.2-4.5 1.8-6.9 1.9.4 3.7.8 6.1 1.3-1.4-5.4-2.8-10.3-4.2-15.8L63.7 38.2c1.9.6 3.7 1.2 5.7 1.9-.6 2.2-1.2 4.4-1.9 6.9-4.6-1.3-9-2.3-13.2-3.8-2.4-.8-2.8-3.4-1-5.3 7.1-7.3 14.3-14.5 21.6-21.6 2.2-2.1 4.8-1.3 5.6 1.8 2.7 9.7 5.3 19.4 7.8 29.1.8 2.9-1.1 4.9-3.8 4.2-4.3-.8-8.4-2.1-13-3.3" fill="#8dc63f"/><g id="XMLID_1_"><path id="XMLID_2_" class="st0" d="M229.9 98.2c.9-.1 1.9-.2 3.1-.2 2.1 0 3.6.5 4.5 1.4 1 .9 1.6 2.2 1.6 4 0 1.8-.6 3.3-1.6 4.3-1.1 1-2.8 1.6-5 1.6-1 0-1.9-.1-2.6-.1v-11zm1.4 9.9c.4 0 .9.1 1.5.1 3.1 0 4.8-1.7 4.8-4.7 0-2.6-1.5-4.3-4.5-4.3-.7 0-1.3.1-1.7.1v8.8z"/><path id="XMLID_5_" class="st0" d="M242.7 98.1v11.2h-1.5V98.1h1.5z"/><path id="XMLID_7_" class="st0" d="M254.1 108.8c-.6.2-1.9.6-3.5.6-1.7 0-3.1-.4-4.2-1.5-1-.9-1.6-2.4-1.6-4.2 0-3.3 2.3-5.8 6.1-5.8 1.3 0 2.3.3 2.8.5l-.4 1.2c-.6-.3-1.3-.5-2.5-.5-2.7 0-4.5 1.7-4.5 4.5s1.7 4.5 4.3 4.5c.9 0 1.6-.1 1.9-.3v-3.3h-2.3v-1.2h3.7v5.5z"/><path id="XMLID_9_" class="st0" d="M258 98.1v11.2h-1.5V98.1h1.5z"/><path id="XMLID_11_" class="st0" d="M263 99.3h-3.4v-1.2h8.3v1.2h-3.4v10H263v-10z"/><path id="XMLID_13_" class="st0" d="M270 105.7l-1.2 3.5h-1.5l3.8-11.2h1.7l3.8 11.2h-1.5l-1.2-3.5H270zm3.7-1.1l-1.1-3.2c-.2-.7-.4-1.4-.6-2-.2.6-.3 1.3-.6 2l-1.1 3.2h3.4z"/><path id="XMLID_16_" class="st0" d="M278.7 98.1h1.5v10h4.8v1.2h-6.2V98.1z"/></g></g></svg>